<svg width="170" height="34" viewBox="0 0 170 34" fill="none" xmlns="http://www.w3.org/2000/svg">
<g filter="url(#filter0_d_4152_508)">
<mask id="path-1-outside-1_4152_508" maskUnits="userSpaceOnUse" x="4" y="6" width="162" height="20" fill="black">
<rect fill="white" x="4" y="6" width="162" height="20"/>
<path d="M16.3113 11.712V24H11.0073V11.712H5.58325V7.488H21.7113V11.712H16.3113ZM24.1276 7.488H38.4076V11.448H29.4316V13.728H37.1116V17.52H29.4316V20.04H38.5756V24H24.1276V7.488ZM49.3199 7.2C51.7679 7.2 53.7039 7.816 55.1279 9.048C56.5519 10.264 57.2639 12.008 57.2639 14.28H52.1999C52.1999 13.32 51.9439 12.56 51.4319 12C50.9359 11.44 50.2239 11.16 49.2959 11.16C48.2239 11.16 47.4319 11.496 46.9199 12.168C46.4239 12.84 46.1759 13.776 46.1759 14.976V16.512C46.1759 17.696 46.4239 18.632 46.9199 19.32C47.4319 19.992 48.2079 20.328 49.2479 20.328C50.2719 20.328 51.0479 20.064 51.5759 19.536C52.1039 19.008 52.3679 18.264 52.3679 17.304H57.2639C57.2639 19.56 56.5679 21.288 55.1759 22.488C53.7999 23.688 51.8479 24.288 49.3199 24.288C46.5039 24.288 44.3679 23.568 42.9119 22.128C41.4719 20.688 40.7519 18.56 40.7519 15.744C40.7519 12.928 41.4719 10.8 42.9119 9.36C44.3679 7.92 46.5039 7.2 49.3199 7.2ZM71.2636 24V17.736H65.4316V24H60.1276V7.488H65.4316V13.512H71.2636V7.488H76.5676V24H71.2636ZM99.9199 24L92.9839 15.984V24H88.1119V7.488H92.7439L99.6799 15.624V7.488H104.552V24H99.9199ZM108.104 7.488H122.384V11.448H113.408V13.728H121.088V17.52H113.408V20.04H122.552V24H108.104V7.488ZM137.832 24L135.696 13.944H135.6L133.464 24H127.632L123.768 7.488H129.288L131.184 16.848H131.28L133.152 7.488H138.384L140.376 16.848H140.472L142.248 7.488H147.528L143.664 24H137.832ZM156.36 7.2C158.472 7.2 160.208 7.632 161.568 8.496C162.928 9.344 163.624 10.608 163.656 12.288V12.576H158.688V12.48C158.688 12 158.512 11.6 158.16 11.28C157.808 10.96 157.272 10.8 156.552 10.8C155.848 10.8 155.304 10.904 154.92 11.112C154.552 11.32 154.368 11.576 154.368 11.88C154.368 12.312 154.624 12.632 155.136 12.84C155.648 13.048 156.472 13.264 157.608 13.488C158.936 13.76 160.024 14.048 160.872 14.352C161.736 14.64 162.488 15.12 163.128 15.792C163.768 16.464 164.096 17.376 164.112 18.528C164.112 20.48 163.448 21.928 162.12 22.872C160.808 23.816 159.048 24.288 156.84 24.288C154.264 24.288 152.256 23.856 150.816 22.992C149.392 22.128 148.68 20.6 148.68 18.408H153.696C153.696 19.24 153.912 19.8 154.344 20.088C154.776 20.36 155.448 20.496 156.36 20.496C157.032 20.496 157.584 20.424 158.016 20.28C158.464 20.136 158.688 19.84 158.688 19.392C158.688 18.992 158.44 18.696 157.944 18.504C157.464 18.296 156.672 18.08 155.568 17.856C154.224 17.568 153.112 17.272 152.232 16.968C151.352 16.648 150.584 16.128 149.928 15.408C149.272 14.688 148.944 13.712 148.944 12.48C148.944 10.672 149.64 9.344 151.032 8.496C152.44 7.632 154.216 7.2 156.36 7.2Z"/>
</mask>
<path d="M16.3113 11.712V24H11.0073V11.712H5.58325V7.488H21.7113V11.712H16.3113ZM24.1276 7.488H38.4076V11.448H29.4316V13.728H37.1116V17.52H29.4316V20.04H38.5756V24H24.1276V7.488ZM49.3199 7.2C51.7679 7.2 53.7039 7.816 55.1279 9.048C56.5519 10.264 57.2639 12.008 57.2639 14.28H52.1999C52.1999 13.32 51.9439 12.56 51.4319 12C50.9359 11.44 50.2239 11.16 49.2959 11.16C48.2239 11.16 47.4319 11.496 46.9199 12.168C46.4239 12.84 46.1759 13.776 46.1759 14.976V16.512C46.1759 17.696 46.4239 18.632 46.9199 19.32C47.4319 19.992 48.2079 20.328 49.2479 20.328C50.2719 20.328 51.0479 20.064 51.5759 19.536C52.1039 19.008 52.3679 18.264 52.3679 17.304H57.2639C57.2639 19.56 56.5679 21.288 55.1759 22.488C53.7999 23.688 51.8479 24.288 49.3199 24.288C46.5039 24.288 44.3679 23.568 42.9119 22.128C41.4719 20.688 40.7519 18.56 40.7519 15.744C40.7519 12.928 41.4719 10.8 42.9119 9.36C44.3679 7.92 46.5039 7.2 49.3199 7.2ZM71.2636 24V17.736H65.4316V24H60.1276V7.488H65.4316V13.512H71.2636V7.488H76.5676V24H71.2636ZM99.9199 24L92.9839 15.984V24H88.1119V7.488H92.7439L99.6799 15.624V7.488H104.552V24H99.9199ZM108.104 7.488H122.384V11.448H113.408V13.728H121.088V17.52H113.408V20.04H122.552V24H108.104V7.488ZM137.832 24L135.696 13.944H135.6L133.464 24H127.632L123.768 7.488H129.288L131.184 16.848H131.28L133.152 7.488H138.384L140.376 16.848H140.472L142.248 7.488H147.528L143.664 24H137.832ZM156.36 7.2C158.472 7.2 160.208 7.632 161.568 8.496C162.928 9.344 163.624 10.608 163.656 12.288V12.576H158.688V12.48C158.688 12 158.512 11.6 158.16 11.28C157.808 10.96 157.272 10.8 156.552 10.8C155.848 10.8 155.304 10.904 154.92 11.112C154.552 11.32 154.368 11.576 154.368 11.88C154.368 12.312 154.624 12.632 155.136 12.84C155.648 13.048 156.472 13.264 157.608 13.488C158.936 13.76 160.024 14.048 160.872 14.352C161.736 14.64 162.488 15.12 163.128 15.792C163.768 16.464 164.096 17.376 164.112 18.528C164.112 20.48 163.448 21.928 162.12 22.872C160.808 23.816 159.048 24.288 156.84 24.288C154.264 24.288 152.256 23.856 150.816 22.992C149.392 22.128 148.68 20.6 148.68 18.408H153.696C153.696 19.24 153.912 19.8 154.344 20.088C154.776 20.36 155.448 20.496 156.36 20.496C157.032 20.496 157.584 20.424 158.016 20.28C158.464 20.136 158.688 19.84 158.688 19.392C158.688 18.992 158.44 18.696 157.944 18.504C157.464 18.296 156.672 18.08 155.568 17.856C154.224 17.568 153.112 17.272 152.232 16.968C151.352 16.648 150.584 16.128 149.928 15.408C149.272 14.688 148.944 13.712 148.944 12.48C148.944 10.672 149.64 9.344 151.032 8.496C152.44 7.632 154.216 7.2 156.36 7.2Z" fill="#60A5FA"/>
<path d="M16.3113 11.712V10.712H15.3113V11.712H16.3113ZM16.3113 24V25H17.3113V24H16.3113ZM11.0073 24H10.0073V25H11.0073V24ZM11.0073 11.712H12.0073V10.712H11.0073V11.712ZM5.58325 11.712H4.58325V12.712H5.58325V11.712ZM5.58325 7.488V6.488H4.58325V7.488H5.58325ZM21.7113 7.488H22.7113V6.488H21.7113V7.488ZM21.7113 11.712V12.712H22.7113V11.712H21.7113ZM15.3113 11.712V24H17.3113V11.712H15.3113ZM16.3113 23H11.0073V25H16.3113V23ZM12.0073 24V11.712H10.0073V24H12.0073ZM11.0073 10.712H5.58325V12.712H11.0073V10.712ZM6.58325 11.712V7.488H4.58325V11.712H6.58325ZM5.58325 8.488H21.7113V6.488H5.58325V8.488ZM20.7113 7.488V11.712H22.7113V7.488H20.7113ZM21.7113 10.712H16.3113V12.712H21.7113V10.712ZM24.1276 7.488V6.488H23.1276V7.488H24.1276ZM38.4076 7.488H39.4076V6.488H38.4076V7.488ZM38.4076 11.448V12.448H39.4076V11.448H38.4076ZM29.4316 11.448V10.448H28.4316V11.448H29.4316ZM29.4316 13.728H28.4316V14.728H29.4316V13.728ZM37.1116 13.728H38.1116V12.728H37.1116V13.728ZM37.1116 17.52V18.52H38.1116V17.52H37.1116ZM29.4316 17.52V16.52H28.4316V17.52H29.4316ZM29.4316 20.04H28.4316V21.04H29.4316V20.04ZM38.5756 20.04H39.5756V19.04H38.5756V20.04ZM38.5756 24V25H39.5756V24H38.5756ZM24.1276 24H23.1276V25H24.1276V24ZM24.1276 8.488H38.4076V6.488H24.1276V8.488ZM37.4076 7.488V11.448H39.4076V7.488H37.4076ZM38.4076 10.448H29.4316V12.448H38.4076V10.448ZM28.4316 11.448V13.728H30.4316V11.448H28.4316ZM29.4316 14.728H37.1116V12.728H29.4316V14.728ZM36.1116 13.728V17.52H38.1116V13.728H36.1116ZM37.1116 16.52H29.4316V18.52H37.1116V16.52ZM28.4316 17.52V20.04H30.4316V17.52H28.4316ZM29.4316 21.04H38.5756V19.04H29.4316V21.04ZM37.5756 20.04V24H39.5756V20.04H37.5756ZM38.5756 23H24.1276V25H38.5756V23ZM25.1276 24V7.488H23.1276V24H25.1276ZM55.1279 9.048L54.4736 9.80426L54.4785 9.80846L55.1279 9.048ZM57.2639 14.28V15.28H58.2639V14.28H57.2639ZM52.1999 14.28H51.1999V15.28H52.1999V14.28ZM51.4319 12L50.6833 12.663L50.6885 12.6689L50.6938 12.6748L51.4319 12ZM46.9199 12.168L46.1244 11.562L46.1198 11.568L46.1153 11.5741L46.9199 12.168ZM46.9199 19.32L46.1087 19.9048L46.1164 19.9155L46.1244 19.926L46.9199 19.32ZM51.5759 19.536L50.8688 18.8289L51.5759 19.536ZM52.3679 17.304V16.304H51.3679V17.304H52.3679ZM57.2639 17.304H58.2639V16.304H57.2639V17.304ZM55.1759 22.488L54.5229 21.7306L54.5186 21.7343L55.1759 22.488ZM42.9119 22.128L42.2048 22.8351L42.2087 22.839L42.9119 22.128ZM42.9119 9.36L42.2087 8.64899L42.2048 8.65289L42.9119 9.36ZM49.3199 8.2C51.6012 8.2 53.2801 8.77172 54.4736 9.80425L55.7822 8.29175C54.1276 6.86028 51.9346 6.2 49.3199 6.2V8.2ZM54.4785 9.80846C55.6328 10.7942 56.2639 12.2323 56.2639 14.28H58.2639C58.2639 11.7837 57.4709 9.73382 55.7773 8.28754L54.4785 9.80846ZM57.2639 13.28H52.1999V15.28H57.2639V13.28ZM53.1999 14.28C53.1999 13.139 52.8917 12.1147 52.1699 11.3252L50.6938 12.6748C50.9961 13.0053 51.1999 13.501 51.1999 14.28H53.1999ZM52.1805 11.337C51.4504 10.5127 50.4358 10.16 49.2959 10.16V12.16C50.012 12.16 50.4214 12.3673 50.6833 12.663L52.1805 11.337ZM49.2959 10.16C48.0041 10.16 46.8753 10.5765 46.1244 11.562L47.7153 12.774C47.9885 12.4155 48.4436 12.16 49.2959 12.16V10.16ZM46.1153 11.5741C45.4477 12.4787 45.1759 13.6523 45.1759 14.976H47.1759C47.1759 13.8997 47.4001 13.2013 47.7244 12.7619L46.1153 11.5741ZM45.1759 14.976V16.512H47.1759V14.976H45.1759ZM45.1759 16.512C45.1759 17.8251 45.4499 18.991 46.1087 19.9048L47.7311 18.7352C47.3979 18.273 47.1759 17.5669 47.1759 16.512H45.1759ZM46.1244 19.926C46.8694 20.9038 47.9759 21.328 49.2479 21.328V19.328C48.4398 19.328 47.9944 19.0802 47.7153 18.714L46.1244 19.926ZM49.2479 21.328C50.4364 21.328 51.5066 21.0195 52.283 20.2431L50.8688 18.8289C50.5892 19.1085 50.1074 19.328 49.2479 19.328V21.328ZM52.283 20.2431C53.048 19.4781 53.3679 18.4499 53.3679 17.304H51.3679C51.3679 18.0781 51.1598 18.5379 50.8688 18.8289L52.283 20.2431ZM52.3679 18.304H57.2639V16.304H52.3679V18.304ZM56.2639 17.304C56.2639 19.3411 55.6453 20.763 54.5229 21.7306L55.8288 23.2454C57.4905 21.813 58.2639 19.7789 58.2639 17.304H56.2639ZM54.5186 21.7343C53.3843 22.7236 51.6991 23.288 49.3199 23.288V25.288C51.9967 25.288 54.2155 24.6524 55.8331 23.2417L54.5186 21.7343ZM49.3199 23.288C46.6664 23.288 44.8227 22.6114 43.6151 21.417L42.2087 22.839C43.913 24.5246 46.3413 25.288 49.3199 25.288V23.288ZM43.619 21.4209C42.4288 20.2307 41.7519 18.3983 41.7519 15.744H39.7519C39.7519 18.7217 40.5149 21.1453 42.2048 22.8351L43.619 21.4209ZM41.7519 15.744C41.7519 13.0897 42.4288 11.2573 43.619 10.0671L42.2048 8.65289C40.5149 10.3427 39.7519 12.7663 39.7519 15.744H41.7519ZM43.6151 10.071C44.8227 8.87663 46.6664 8.2 49.3199 8.2V6.2C46.3413 6.2 43.913 6.96336 42.2087 8.649L43.6151 10.071ZM71.2636 24H70.2636V25H71.2636V24ZM71.2636 17.736H72.2636V16.736H71.2636V17.736ZM65.4316 17.736V16.736H64.4316V17.736H65.4316ZM65.4316 24V25H66.4316V24H65.4316ZM60.1276 24H59.1276V25H60.1276V24ZM60.1276 7.488V6.488H59.1276V7.488H60.1276ZM65.4316 7.488H66.4316V6.488H65.4316V7.488ZM65.4316 13.512H64.4316V14.512H65.4316V13.512ZM71.2636 13.512V14.512H72.2636V13.512H71.2636ZM71.2636 7.488V6.488H70.2636V7.488H71.2636ZM76.5676 7.488H77.5676V6.488H76.5676V7.488ZM76.5676 24V25H77.5676V24H76.5676ZM72.2636 24V17.736H70.2636V24H72.2636ZM71.2636 16.736H65.4316V18.736H71.2636V16.736ZM64.4316 17.736V24H66.4316V17.736H64.4316ZM65.4316 23H60.1276V25H65.4316V23ZM61.1276 24V7.488H59.1276V24H61.1276ZM60.1276 8.488H65.4316V6.488H60.1276V8.488ZM64.4316 7.488V13.512H66.4316V7.488H64.4316ZM65.4316 14.512H71.2636V12.512H65.4316V14.512ZM72.2636 13.512V7.488H70.2636V13.512H72.2636ZM71.2636 8.488H76.5676V6.488H71.2636V8.488ZM75.5676 7.488V24H77.5676V7.488H75.5676ZM76.5676 23H71.2636V25H76.5676V23ZM99.9199 24L99.1637 24.6543L99.4628 25H99.9199V24ZM92.9839 15.984L93.7402 15.3297L91.9839 13.3V15.984H92.9839ZM92.9839 24V25H93.9839V24H92.9839ZM88.1119 24H87.1119V25H88.1119V24ZM88.1119 7.488V6.488H87.1119V7.488H88.1119ZM92.7439 7.488L93.5049 6.83924L93.2055 6.488H92.7439V7.488ZM99.6799 15.624L98.9189 16.2728L100.68 18.3384V15.624H99.6799ZM99.6799 7.488V6.488H98.6799V7.488H99.6799ZM104.552 7.488H105.552V6.488H104.552V7.488ZM104.552 24V25H105.552V24H104.552ZM100.676 23.3457L93.7402 15.3297L92.2277 16.6383L99.1637 24.6543L100.676 23.3457ZM91.9839 15.984V24H93.9839V15.984H91.9839ZM92.9839 23H88.1119V25H92.9839V23ZM89.1119 24V7.488H87.1119V24H89.1119ZM88.1119 8.488H92.7439V6.488H88.1119V8.488ZM91.9829 8.13675L98.9189 16.2728L100.441 14.9752L93.5049 6.83924L91.9829 8.13675ZM100.68 15.624V7.488H98.6799V15.624H100.68ZM99.6799 8.488H104.552V6.488H99.6799V8.488ZM103.552 7.488V24H105.552V7.488H103.552ZM104.552 23H99.9199V25H104.552V23ZM108.104 7.488V6.488H107.104V7.488H108.104ZM122.384 7.488H123.384V6.488H122.384V7.488ZM122.384 11.448V12.448H123.384V11.448H122.384ZM113.408 11.448V10.448H112.408V11.448H113.408ZM113.408 13.728H112.408V14.728H113.408V13.728ZM121.088 13.728H122.088V12.728H121.088V13.728ZM121.088 17.52V18.52H122.088V17.52H121.088ZM113.408 17.52V16.52H112.408V17.52H113.408ZM113.408 20.04H112.408V21.04H113.408V20.04ZM122.552 20.04H123.552V19.04H122.552V20.04ZM122.552 24V25H123.552V24H122.552ZM108.104 24H107.104V25H108.104V24ZM108.104 8.488H122.384V6.488H108.104V8.488ZM121.384 7.488V11.448H123.384V7.488H121.384ZM122.384 10.448H113.408V12.448H122.384V10.448ZM112.408 11.448V13.728H114.408V11.448H112.408ZM113.408 14.728H121.088V12.728H113.408V14.728ZM120.088 13.728V17.52H122.088V13.728H120.088ZM121.088 16.52H113.408V18.52H121.088V16.52ZM112.408 17.52V20.04H114.408V17.52H112.408ZM113.408 21.04H122.552V19.04H113.408V21.04ZM121.552 20.04V24H123.552V20.04H121.552ZM122.552 23H108.104V25H122.552V23ZM109.104 24V7.488H107.104V24H109.104ZM137.832 24L136.854 24.2078L137.023 25H137.832V24ZM135.696 13.944L136.675 13.7362L136.506 12.944H135.696V13.944ZM135.6 13.944V12.944H134.791L134.622 13.7362L135.6 13.944ZM133.464 24V25H134.274L134.443 24.2078L133.464 24ZM127.632 24L126.659 24.2279L126.839 25H127.632V24ZM123.768 7.488V6.488H122.507L122.795 7.71586L123.768 7.488ZM129.288 7.488L130.269 7.28947L130.106 6.488H129.288V7.488ZM131.184 16.848L130.204 17.0465L130.367 17.848H131.184V16.848ZM131.28 16.848V17.848H132.1L132.261 17.0441L131.28 16.848ZM133.152 7.488V6.488H132.333L132.172 7.29188L133.152 7.488ZM138.384 7.488L139.363 7.27984L139.194 6.488H138.384V7.488ZM140.376 16.848L139.398 17.0562L139.567 17.848H140.376V16.848ZM140.472 16.848V17.848H141.301L141.455 17.0344L140.472 16.848ZM142.248 7.488V6.488H141.42L141.266 7.30158L142.248 7.488ZM147.528 7.488L148.502 7.71586L148.789 6.488H147.528V7.488ZM143.664 24V25H144.457L144.638 24.2279L143.664 24ZM138.811 23.7922L136.675 13.7362L134.718 14.1518L136.854 24.2078L138.811 23.7922ZM135.696 12.944H135.6V14.944H135.696V12.944ZM134.622 13.7362L132.486 23.7922L134.443 24.2078L136.579 14.1518L134.622 13.7362ZM133.464 23H127.632V25H133.464V23ZM128.606 23.7721L124.742 7.26014L122.795 7.71586L126.659 24.2279L128.606 23.7721ZM123.768 8.488H129.288V6.488H123.768V8.488ZM128.308 7.68653L130.204 17.0465L132.165 16.6495L130.269 7.28947L128.308 7.68653ZM131.184 17.848H131.28V15.848H131.184V17.848ZM132.261 17.0441L134.133 7.68412L132.172 7.29188L130.3 16.6519L132.261 17.0441ZM133.152 8.488H138.384V6.488H133.152V8.488ZM137.406 7.69616L139.398 17.0562L141.355 16.6398L139.363 7.27984L137.406 7.69616ZM140.376 17.848H140.472V15.848H140.376V17.848ZM141.455 17.0344L143.231 7.67442L141.266 7.30158L139.49 16.6616L141.455 17.0344ZM142.248 8.488H147.528V6.488H142.248V8.488ZM146.555 7.26014L142.691 23.7721L144.638 24.2279L148.502 7.71586L146.555 7.26014ZM143.664 23H137.832V25H143.664V23ZM161.568 8.496L161.032 9.3401L161.039 9.34456L161.568 8.496ZM163.656 12.288H164.656V12.2785L164.656 12.269L163.656 12.288ZM163.656 12.576V13.576H164.656V12.576H163.656ZM158.688 12.576H157.688V13.576H158.688V12.576ZM158.16 11.28L158.833 10.5401V10.5401L158.16 11.28ZM154.92 11.112L154.444 10.2327L154.436 10.237L154.428 10.2414L154.92 11.112ZM155.136 12.84L155.513 11.9135V11.9135L155.136 12.84ZM157.608 13.488L157.809 12.5083L157.802 12.5069L157.608 13.488ZM160.872 14.352L160.535 15.2933L160.546 15.2971L160.556 15.3007L160.872 14.352ZM164.112 18.528H165.113L165.112 18.5141L164.112 18.528ZM162.12 22.872L161.541 22.0569L161.536 22.0603L162.12 22.872ZM150.816 22.992L150.298 23.847L150.302 23.8495L150.816 22.992ZM148.68 18.408V17.408H147.68V18.408H148.68ZM153.696 18.408H154.696V17.408H153.696V18.408ZM154.344 20.088L153.79 20.92L153.801 20.9273L153.812 20.9342L154.344 20.088ZM158.016 20.28L157.71 19.3279L157.7 19.3313L158.016 20.28ZM157.944 18.504L157.547 19.4216L157.565 19.4294L157.583 19.4366L157.944 18.504ZM155.568 17.856L155.359 18.8339L155.37 18.836L155.568 17.856ZM152.232 16.968L151.891 17.9078L151.898 17.9106L151.906 17.9132L152.232 16.968ZM149.928 15.408L149.189 16.0815L149.928 15.408ZM151.032 8.496L151.553 9.35001L151.555 9.34832L151.032 8.496ZM156.36 8.2C158.34 8.2 159.875 8.60506 161.032 9.34007L162.105 7.65193C160.542 6.65894 158.604 6.2 156.36 6.2V8.2ZM161.039 9.34456C162.096 10.0033 162.631 10.9457 162.657 12.307L164.656 12.269C164.618 10.2703 163.761 8.68466 162.098 7.64744L161.039 9.34456ZM162.656 12.288V12.576H164.656V12.288H162.656ZM163.656 11.576H158.688V13.576H163.656V11.576ZM159.688 12.576V12.48H157.688V12.576H159.688ZM159.688 12.48C159.688 11.7212 159.396 11.0515 158.833 10.5401L157.488 12.0199C157.629 12.1485 157.688 12.2788 157.688 12.48H159.688ZM158.833 10.5401C158.222 9.98473 157.397 9.8 156.552 9.8V11.8C157.148 11.8 157.395 11.9353 157.488 12.0199L158.833 10.5401ZM156.552 9.8C155.773 9.8 155.038 9.9112 154.444 10.2327L155.397 11.9913C155.571 11.8968 155.924 11.8 156.552 11.8V9.8ZM154.428 10.2414C153.884 10.5489 153.368 11.0809 153.368 11.88H155.368C155.368 11.9067 155.364 11.9393 155.353 11.9732C155.342 12.0067 155.328 12.0305 155.318 12.0436C155.31 12.0558 155.308 12.0546 155.322 12.0425C155.337 12.0302 155.365 12.0093 155.412 11.9826L154.428 10.2414ZM153.368 11.88C153.368 12.3098 153.502 12.7213 153.78 13.0687C154.045 13.4007 154.399 13.6197 154.76 13.7665L155.513 11.9135C155.362 11.8523 155.332 11.8073 155.341 11.8193C155.347 11.8268 155.357 11.8416 155.363 11.8607C155.369 11.8792 155.368 11.888 155.368 11.88H153.368ZM154.76 13.7665C155.366 14.0125 156.269 14.2431 157.415 14.4691L157.802 12.5069C156.676 12.2849 155.931 12.0835 155.513 11.9135L154.76 13.7665ZM157.408 14.4677C158.71 14.7344 159.748 15.0112 160.535 15.2933L161.21 13.4107C160.301 13.0848 159.163 12.7856 157.809 12.5083L157.408 14.4677ZM160.556 15.3007C161.262 15.536 161.875 15.9257 162.404 16.4817L163.853 15.1023C163.102 14.3143 162.211 13.744 161.189 13.4033L160.556 15.3007ZM162.404 16.4817C162.831 16.9298 163.099 17.5782 163.113 18.5419L165.112 18.5141C165.094 17.1738 164.706 15.9982 163.853 15.1023L162.404 16.4817ZM163.112 18.528C163.112 20.2291 162.551 21.3391 161.541 22.0569L162.7 23.6871C164.346 22.5169 165.112 20.7309 165.112 18.528H163.112ZM161.536 22.0603C160.447 22.8443 158.914 23.288 156.84 23.288V25.288C159.183 25.288 161.17 24.7877 162.704 23.6837L161.536 22.0603ZM156.84 23.288C154.357 23.288 152.554 22.8681 151.331 22.1345L150.302 23.8495C151.959 24.8439 154.172 25.288 156.84 25.288V23.288ZM151.335 22.1371C150.303 21.511 149.68 20.3757 149.68 18.408H147.68C147.68 20.8243 148.482 22.745 150.298 23.8469L151.335 22.1371ZM148.68 19.408H153.696V17.408H148.68V19.408ZM152.696 18.408C152.696 19.367 152.943 20.3553 153.79 20.92L154.899 19.2559C154.882 19.2447 154.696 19.113 154.696 18.408H152.696ZM153.812 20.9342C154.485 21.3583 155.388 21.496 156.36 21.496V19.496C155.508 19.496 155.068 19.3617 154.877 19.2418L153.812 20.9342ZM156.36 21.496C157.094 21.496 157.763 21.4187 158.333 21.2287L157.7 19.3313C157.406 19.4293 156.971 19.496 156.36 19.496V21.496ZM158.322 21.232C158.69 21.114 159.052 20.9045 159.318 20.5534C159.587 20.1981 159.688 19.7875 159.688 19.392H157.688C157.688 19.421 157.685 19.4248 157.689 19.4112C157.694 19.3958 157.704 19.3716 157.723 19.3466C157.742 19.3219 157.759 19.3096 157.763 19.3069C157.765 19.3052 157.751 19.3148 157.71 19.328L158.322 21.232ZM159.688 19.392C159.688 18.9663 159.55 18.5627 159.269 18.2278C159.003 17.9106 158.654 17.7065 158.305 17.5714L157.583 19.4366C157.654 19.4639 157.698 19.488 157.721 19.5037C157.745 19.519 157.745 19.5236 157.736 19.5122C157.725 19.4994 157.711 19.477 157.7 19.4472C157.689 19.4178 157.688 19.3969 157.688 19.392H159.688ZM158.342 17.5864C157.76 17.3341 156.88 17.1017 155.767 16.876L155.37 18.836C156.465 19.0583 157.169 19.2579 157.547 19.4216L158.342 17.5864ZM155.778 16.8782C154.457 16.5951 153.387 16.309 152.559 16.0228L151.906 17.9132C152.838 18.235 153.992 18.5409 155.359 18.8338L155.778 16.8782ZM152.574 16.0282C151.852 15.7658 151.219 15.3399 150.668 14.7345L149.189 16.0815C149.95 16.9161 150.852 17.5302 151.891 17.9078L152.574 16.0282ZM150.668 14.7345C150.22 14.2437 149.944 13.5313 149.944 12.48H147.944C147.944 13.8927 148.324 15.1323 149.189 16.0815L150.668 14.7345ZM149.944 12.48C149.944 10.9752 150.496 9.99397 151.553 9.35001L150.512 7.64199C148.785 8.69403 147.944 10.3688 147.944 12.48H149.944ZM151.555 9.34832C152.766 8.60567 154.347 8.2 156.36 8.2V6.2C154.086 6.2 152.115 6.65833 150.509 7.64368L151.555 9.34832Z" fill="black" mask="url(#path-1-outside-1_4152_508)"/>
</g>
<defs>
<filter id="filter0_d_4152_508" x="0.583252" y="6.20001" width="168.529" height="27.088" filterUnits="userSpaceOnUse" color-interpolation-filters="sRGB">
<feFlood flood-opacity="0" result="BackgroundImageFix"/>
<feColorMatrix in="SourceAlpha" type="matrix" values="0 0 0 0 0 0 0 0 0 0 0 0 0 0 0 0 0 0 127 0" result="hardAlpha"/>
<feOffset dy="4"/>
<feGaussianBlur stdDeviation="2"/>
<feComposite in2="hardAlpha" operator="out"/>
<feColorMatrix type="matrix" values="0 0 0 0 0 0 0 0 0 0 0 0 0 0 0 0 0 0 0.25 0"/>
<feBlend mode="normal" in2="BackgroundImageFix" result="effect1_dropShadow_4152_508"/>
<feBlend mode="normal" in="SourceGraphic" in2="effect1_dropShadow_4152_508" result="shape"/>
</filter>
</defs>
</svg>
