<svg width="170" height="28" viewBox="0 0 170 28" fill="none" xmlns="http://www.w3.org/2000/svg">
<g filter="url(#filter0_d_4109_367)">
<mask id="path-1-outside-1_4109_367" maskUnits="userSpaceOnUse" x="4" y="0" width="162" height="20" fill="black">
<rect fill="white" x="4" width="162" height="20"/>
<path d="M16.3113 5.712V18H11.0073V5.712H5.58325V1.488H21.7113V5.712H16.3113ZM24.1276 1.488H38.4076V5.448H29.4316V7.728H37.1116V11.52H29.4316V14.04H38.5756V18H24.1276V1.488ZM49.3199 1.2C51.7679 1.2 53.7039 1.816 55.1279 3.048C56.5519 4.264 57.2639 6.008 57.2639 8.28H52.1999C52.1999 7.32 51.9439 6.56 51.4319 6C50.9359 5.44 50.2239 5.16 49.2959 5.16C48.2239 5.16 47.4319 5.496 46.9199 6.168C46.4239 6.84 46.1759 7.776 46.1759 8.976V10.512C46.1759 11.696 46.4239 12.632 46.9199 13.32C47.4319 13.992 48.2079 14.328 49.2479 14.328C50.2719 14.328 51.0479 14.064 51.5759 13.536C52.1039 13.008 52.3679 12.264 52.3679 11.304H57.2639C57.2639 13.56 56.5679 15.288 55.1759 16.488C53.7999 17.688 51.8479 18.288 49.3199 18.288C46.5039 18.288 44.3679 17.568 42.9119 16.128C41.4719 14.688 40.7519 12.56 40.7519 9.744C40.7519 6.928 41.4719 4.8 42.9119 3.36C44.3679 1.92 46.5039 1.2 49.3199 1.2ZM71.2636 18V11.736H65.4316V18H60.1276V1.488H65.4316V7.512H71.2636V1.488H76.5676V18H71.2636ZM99.9199 18L92.9839 9.984V18H88.1119V1.488H92.7439L99.6799 9.624V1.488H104.552V18H99.9199ZM108.104 1.488H122.384V5.448H113.408V7.728H121.088V11.52H113.408V14.04H122.552V18H108.104V1.488ZM137.832 18L135.696 7.944H135.6L133.464 18H127.632L123.768 1.488H129.288L131.184 10.848H131.28L133.152 1.488H138.384L140.376 10.848H140.472L142.248 1.488H147.528L143.664 18H137.832ZM156.36 1.2C158.472 1.2 160.208 1.632 161.568 2.496C162.928 3.344 163.624 4.608 163.656 6.288V6.576H158.688V6.48C158.688 6 158.512 5.6 158.16 5.28C157.808 4.96 157.272 4.8 156.552 4.8C155.848 4.8 155.304 4.904 154.92 5.112C154.552 5.32 154.368 5.576 154.368 5.88C154.368 6.312 154.624 6.632 155.136 6.84C155.648 7.048 156.472 7.264 157.608 7.488C158.936 7.76 160.024 8.048 160.872 8.352C161.736 8.64 162.488 9.12 163.128 9.792C163.768 10.464 164.096 11.376 164.112 12.528C164.112 14.48 163.448 15.928 162.12 16.872C160.808 17.816 159.048 18.288 156.84 18.288C154.264 18.288 152.256 17.856 150.816 16.992C149.392 16.128 148.68 14.6 148.68 12.408H153.696C153.696 13.24 153.912 13.8 154.344 14.088C154.776 14.36 155.448 14.496 156.36 14.496C157.032 14.496 157.584 14.424 158.016 14.28C158.464 14.136 158.688 13.84 158.688 13.392C158.688 12.992 158.44 12.696 157.944 12.504C157.464 12.296 156.672 12.08 155.568 11.856C154.224 11.568 153.112 11.272 152.232 10.968C151.352 10.648 150.584 10.128 149.928 9.408C149.272 8.688 148.944 7.712 148.944 6.48C148.944 4.672 149.64 3.344 151.032 2.496C152.44 1.632 154.216 1.2 156.36 1.2Z"/>
</mask>
<path d="M16.3113 5.712V18H11.0073V5.712H5.58325V1.488H21.7113V5.712H16.3113ZM24.1276 1.488H38.4076V5.448H29.4316V7.728H37.1116V11.52H29.4316V14.04H38.5756V18H24.1276V1.488ZM49.3199 1.2C51.7679 1.2 53.7039 1.816 55.1279 3.048C56.5519 4.264 57.2639 6.008 57.2639 8.28H52.1999C52.1999 7.32 51.9439 6.56 51.4319 6C50.9359 5.44 50.2239 5.16 49.2959 5.16C48.2239 5.16 47.4319 5.496 46.9199 6.168C46.4239 6.84 46.1759 7.776 46.1759 8.976V10.512C46.1759 11.696 46.4239 12.632 46.9199 13.32C47.4319 13.992 48.2079 14.328 49.2479 14.328C50.2719 14.328 51.0479 14.064 51.5759 13.536C52.1039 13.008 52.3679 12.264 52.3679 11.304H57.2639C57.2639 13.56 56.5679 15.288 55.1759 16.488C53.7999 17.688 51.8479 18.288 49.3199 18.288C46.5039 18.288 44.3679 17.568 42.9119 16.128C41.4719 14.688 40.7519 12.56 40.7519 9.744C40.7519 6.928 41.4719 4.8 42.9119 3.36C44.3679 1.92 46.5039 1.2 49.3199 1.2ZM71.2636 18V11.736H65.4316V18H60.1276V1.488H65.4316V7.512H71.2636V1.488H76.5676V18H71.2636ZM99.9199 18L92.9839 9.984V18H88.1119V1.488H92.7439L99.6799 9.624V1.488H104.552V18H99.9199ZM108.104 1.488H122.384V5.448H113.408V7.728H121.088V11.52H113.408V14.04H122.552V18H108.104V1.488ZM137.832 18L135.696 7.944H135.6L133.464 18H127.632L123.768 1.488H129.288L131.184 10.848H131.28L133.152 1.488H138.384L140.376 10.848H140.472L142.248 1.488H147.528L143.664 18H137.832ZM156.36 1.2C158.472 1.2 160.208 1.632 161.568 2.496C162.928 3.344 163.624 4.608 163.656 6.288V6.576H158.688V6.48C158.688 6 158.512 5.6 158.16 5.28C157.808 4.96 157.272 4.8 156.552 4.8C155.848 4.8 155.304 4.904 154.92 5.112C154.552 5.32 154.368 5.576 154.368 5.88C154.368 6.312 154.624 6.632 155.136 6.84C155.648 7.048 156.472 7.264 157.608 7.488C158.936 7.76 160.024 8.048 160.872 8.352C161.736 8.64 162.488 9.12 163.128 9.792C163.768 10.464 164.096 11.376 164.112 12.528C164.112 14.48 163.448 15.928 162.12 16.872C160.808 17.816 159.048 18.288 156.84 18.288C154.264 18.288 152.256 17.856 150.816 16.992C149.392 16.128 148.68 14.6 148.68 12.408H153.696C153.696 13.24 153.912 13.8 154.344 14.088C154.776 14.36 155.448 14.496 156.36 14.496C157.032 14.496 157.584 14.424 158.016 14.28C158.464 14.136 158.688 13.84 158.688 13.392C158.688 12.992 158.44 12.696 157.944 12.504C157.464 12.296 156.672 12.08 155.568 11.856C154.224 11.568 153.112 11.272 152.232 10.968C151.352 10.648 150.584 10.128 149.928 9.408C149.272 8.688 148.944 7.712 148.944 6.48C148.944 4.672 149.64 3.344 151.032 2.496C152.44 1.632 154.216 1.2 156.36 1.2Z" fill="#60A5FA"/>
<path d="M16.3113 5.712V4.712H15.3113V5.712H16.3113ZM16.3113 18V19H17.3113V18H16.3113ZM11.0073 18H10.0073V19H11.0073V18ZM11.0073 5.712H12.0073V4.712H11.0073V5.712ZM5.58325 5.712H4.58325V6.712H5.58325V5.712ZM5.58325 1.488V0.487999H4.58325V1.488H5.58325ZM21.7113 1.488H22.7113V0.487999H21.7113V1.488ZM21.7113 5.712V6.712H22.7113V5.712H21.7113ZM15.3113 5.712V18H17.3113V5.712H15.3113ZM16.3113 17H11.0073V19H16.3113V17ZM12.0073 18V5.712H10.0073V18H12.0073ZM11.0073 4.712H5.58325V6.712H11.0073V4.712ZM6.58325 5.712V1.488H4.58325V5.712H6.58325ZM5.58325 2.488H21.7113V0.487999H5.58325V2.488ZM20.7113 1.488V5.712H22.7113V1.488H20.7113ZM21.7113 4.712H16.3113V6.712H21.7113V4.712ZM24.1276 1.488V0.487999H23.1276V1.488H24.1276ZM38.4076 1.488H39.4076V0.487999H38.4076V1.488ZM38.4076 5.448V6.448H39.4076V5.448H38.4076ZM29.4316 5.448V4.448H28.4316V5.448H29.4316ZM29.4316 7.728H28.4316V8.728H29.4316V7.728ZM37.1116 7.728H38.1116V6.728H37.1116V7.728ZM37.1116 11.52V12.52H38.1116V11.52H37.1116ZM29.4316 11.52V10.52H28.4316V11.52H29.4316ZM29.4316 14.04H28.4316V15.04H29.4316V14.04ZM38.5756 14.04H39.5756V13.04H38.5756V14.04ZM38.5756 18V19H39.5756V18H38.5756ZM24.1276 18H23.1276V19H24.1276V18ZM24.1276 2.488H38.4076V0.487999H24.1276V2.488ZM37.4076 1.488V5.448H39.4076V1.488H37.4076ZM38.4076 4.448H29.4316V6.448H38.4076V4.448ZM28.4316 5.448V7.728H30.4316V5.448H28.4316ZM29.4316 8.728H37.1116V6.728H29.4316V8.728ZM36.1116 7.728V11.52H38.1116V7.728H36.1116ZM37.1116 10.52H29.4316V12.52H37.1116V10.52ZM28.4316 11.52V14.04H30.4316V11.52H28.4316ZM29.4316 15.04H38.5756V13.04H29.4316V15.04ZM37.5756 14.04V18H39.5756V14.04H37.5756ZM38.5756 17H24.1276V19H38.5756V17ZM25.1276 18V1.488H23.1276V18H25.1276ZM55.1279 3.048L54.4736 3.80426L54.4785 3.80846L55.1279 3.048ZM57.2639 8.28V9.28H58.2639V8.28H57.2639ZM52.1999 8.28H51.1999V9.28H52.1999V8.28ZM51.4319 6L50.6833 6.66303L50.6885 6.66894L50.6938 6.67477L51.4319 6ZM46.9199 6.168L46.1244 5.56196L46.1198 5.56802L46.1153 5.57415L46.9199 6.168ZM46.9199 13.32L46.1087 13.9048L46.1164 13.9155L46.1244 13.926L46.9199 13.32ZM51.5759 13.536L50.8688 12.8289L51.5759 13.536ZM52.3679 11.304V10.304H51.3679V11.304H52.3679ZM57.2639 11.304H58.2639V10.304H57.2639V11.304ZM55.1759 16.488L54.5229 15.7306L54.5186 15.7343L55.1759 16.488ZM42.9119 16.128L42.2048 16.8351L42.2087 16.839L42.9119 16.128ZM42.9119 3.36L42.2087 2.64899L42.2048 2.65289L42.9119 3.36ZM49.3199 2.2C51.6012 2.2 53.2801 2.77172 54.4736 3.80425L55.7822 2.29175C54.1276 0.86028 51.9346 0.199999 49.3199 0.199999V2.2ZM54.4785 3.80846C55.6328 4.79418 56.2639 6.23225 56.2639 8.28H58.2639C58.2639 5.78375 57.4709 3.73382 55.7773 2.28754L54.4785 3.80846ZM57.2639 7.28H52.1999V9.28H57.2639V7.28ZM53.1999 8.28C53.1999 7.139 52.8917 6.11467 52.1699 5.32523L50.6938 6.67477C50.9961 7.00532 51.1999 7.501 51.1999 8.28H53.1999ZM52.1805 5.33697C51.4504 4.51268 50.4358 4.16 49.2959 4.16V6.16C50.012 6.16 50.4214 6.36732 50.6833 6.66303L52.1805 5.33697ZM49.2959 4.16C48.0041 4.16 46.8753 4.57646 46.1244 5.56196L47.7153 6.77404C47.9885 6.41554 48.4436 6.16 49.2959 6.16V4.16ZM46.1153 5.57415C45.4477 6.47867 45.1759 7.6523 45.1759 8.976H47.1759C47.1759 7.8997 47.4001 7.20133 47.7244 6.76185L46.1153 5.57415ZM45.1759 8.976V10.512H47.1759V8.976H45.1759ZM45.1759 10.512C45.1759 11.8251 45.4499 12.991 46.1087 13.9048L47.7311 12.7352C47.3979 12.273 47.1759 11.5669 47.1759 10.512H45.1759ZM46.1244 13.926C46.8694 14.9038 47.9759 15.328 49.2479 15.328V13.328C48.4398 13.328 47.9944 13.0802 47.7153 12.714L46.1244 13.926ZM49.2479 15.328C50.4364 15.328 51.5066 15.0195 52.283 14.2431L50.8688 12.8289C50.5892 13.1085 50.1074 13.328 49.2479 13.328V15.328ZM52.283 14.2431C53.048 13.4781 53.3679 12.4499 53.3679 11.304H51.3679C51.3679 12.0781 51.1598 12.5379 50.8688 12.8289L52.283 14.2431ZM52.3679 12.304H57.2639V10.304H52.3679V12.304ZM56.2639 11.304C56.2639 13.3411 55.6453 14.763 54.5229 15.7306L55.8288 17.2454C57.4905 15.813 58.2639 13.7789 58.2639 11.304H56.2639ZM54.5186 15.7343C53.3843 16.7236 51.6991 17.288 49.3199 17.288V19.288C51.9967 19.288 54.2155 18.6524 55.8331 17.2417L54.5186 15.7343ZM49.3199 17.288C46.6664 17.288 44.8227 16.6114 43.6151 15.417L42.2087 16.839C43.913 18.5246 46.3413 19.288 49.3199 19.288V17.288ZM43.619 15.4209C42.4288 14.2307 41.7519 12.3983 41.7519 9.744H39.7519C39.7519 12.7217 40.5149 15.1453 42.2048 16.8351L43.619 15.4209ZM41.7519 9.744C41.7519 7.08971 42.4288 5.25725 43.619 4.06711L42.2048 2.65289C40.5149 4.34275 39.7519 6.76629 39.7519 9.744H41.7519ZM43.6151 4.071C44.8227 2.87663 46.6664 2.2 49.3199 2.2V0.199999C46.3413 0.199999 43.913 0.963365 42.2087 2.649L43.6151 4.071ZM71.2636 18H70.2636V19H71.2636V18ZM71.2636 11.736H72.2636V10.736H71.2636V11.736ZM65.4316 11.736V10.736H64.4316V11.736H65.4316ZM65.4316 18V19H66.4316V18H65.4316ZM60.1276 18H59.1276V19H60.1276V18ZM60.1276 1.488V0.487999H59.1276V1.488H60.1276ZM65.4316 1.488H66.4316V0.487999H65.4316V1.488ZM65.4316 7.512H64.4316V8.512H65.4316V7.512ZM71.2636 7.512V8.512H72.2636V7.512H71.2636ZM71.2636 1.488V0.487999H70.2636V1.488H71.2636ZM76.5676 1.488H77.5676V0.487999H76.5676V1.488ZM76.5676 18V19H77.5676V18H76.5676ZM72.2636 18V11.736H70.2636V18H72.2636ZM71.2636 10.736H65.4316V12.736H71.2636V10.736ZM64.4316 11.736V18H66.4316V11.736H64.4316ZM65.4316 17H60.1276V19H65.4316V17ZM61.1276 18V1.488H59.1276V18H61.1276ZM60.1276 2.488H65.4316V0.487999H60.1276V2.488ZM64.4316 1.488V7.512H66.4316V1.488H64.4316ZM65.4316 8.512H71.2636V6.512H65.4316V8.512ZM72.2636 7.512V1.488H70.2636V7.512H72.2636ZM71.2636 2.488H76.5676V0.487999H71.2636V2.488ZM75.5676 1.488V18H77.5676V1.488H75.5676ZM76.5676 17H71.2636V19H76.5676V17ZM99.9199 18L99.1637 18.6543L99.4628 19H99.9199V18ZM92.9839 9.984L93.7402 9.32967L91.9839 7.3V9.984H92.9839ZM92.9839 18V19H93.9839V18H92.9839ZM88.1119 18H87.1119V19H88.1119V18ZM88.1119 1.488V0.487999H87.1119V1.488H88.1119ZM92.7439 1.488L93.5049 0.839244L93.2055 0.487999H92.7439V1.488ZM99.6799 9.624L98.9189 10.2728L100.68 12.3384V9.624H99.6799ZM99.6799 1.488V0.487999H98.6799V1.488H99.6799ZM104.552 1.488H105.552V0.487999H104.552V1.488ZM104.552 18V19H105.552V18H104.552ZM100.676 17.3457L93.7402 9.32967L92.2277 10.6383L99.1637 18.6543L100.676 17.3457ZM91.9839 9.984V18H93.9839V9.984H91.9839ZM92.9839 17H88.1119V19H92.9839V17ZM89.1119 18V1.488H87.1119V18H89.1119ZM88.1119 2.488H92.7439V0.487999H88.1119V2.488ZM91.9829 2.13675L98.9189 10.2728L100.441 8.97524L93.5049 0.839244L91.9829 2.13675ZM100.68 9.624V1.488H98.6799V9.624H100.68ZM99.6799 2.488H104.552V0.487999H99.6799V2.488ZM103.552 1.488V18H105.552V1.488H103.552ZM104.552 17H99.9199V19H104.552V17ZM108.104 1.488V0.487999H107.104V1.488H108.104ZM122.384 1.488H123.384V0.487999H122.384V1.488ZM122.384 5.448V6.448H123.384V5.448H122.384ZM113.408 5.448V4.448H112.408V5.448H113.408ZM113.408 7.728H112.408V8.728H113.408V7.728ZM121.088 7.728H122.088V6.728H121.088V7.728ZM121.088 11.52V12.52H122.088V11.52H121.088ZM113.408 11.52V10.52H112.408V11.52H113.408ZM113.408 14.04H112.408V15.04H113.408V14.04ZM122.552 14.04H123.552V13.04H122.552V14.04ZM122.552 18V19H123.552V18H122.552ZM108.104 18H107.104V19H108.104V18ZM108.104 2.488H122.384V0.487999H108.104V2.488ZM121.384 1.488V5.448H123.384V1.488H121.384ZM122.384 4.448H113.408V6.448H122.384V4.448ZM112.408 5.448V7.728H114.408V5.448H112.408ZM113.408 8.728H121.088V6.728H113.408V8.728ZM120.088 7.728V11.52H122.088V7.728H120.088ZM121.088 10.52H113.408V12.52H121.088V10.52ZM112.408 11.52V14.04H114.408V11.52H112.408ZM113.408 15.04H122.552V13.04H113.408V15.04ZM121.552 14.04V18H123.552V14.04H121.552ZM122.552 17H108.104V19H122.552V17ZM109.104 18V1.488H107.104V18H109.104ZM137.832 18L136.854 18.2078L137.023 19H137.832V18ZM135.696 7.944L136.675 7.73622L136.506 6.944H135.696V7.944ZM135.6 7.944V6.944H134.791L134.622 7.73622L135.6 7.944ZM133.464 18V19H134.274L134.443 18.2078L133.464 18ZM127.632 18L126.659 18.2279L126.839 19H127.632V18ZM123.768 1.488V0.487999H122.507L122.795 1.71586L123.768 1.488ZM129.288 1.488L130.269 1.28947L130.106 0.487999H129.288V1.488ZM131.184 10.848L130.204 11.0465L130.367 11.848H131.184V10.848ZM131.28 10.848V11.848H132.1L132.261 11.0441L131.28 10.848ZM133.152 1.488V0.487999H132.333L132.172 1.29188L133.152 1.488ZM138.384 1.488L139.363 1.27984L139.194 0.487999H138.384V1.488ZM140.376 10.848L139.398 11.0562L139.567 11.848H140.376V10.848ZM140.472 10.848V11.848H141.301L141.455 11.0344L140.472 10.848ZM142.248 1.488V0.487999H141.42L141.266 1.30158L142.248 1.488ZM147.528 1.488L148.502 1.71586L148.789 0.487999H147.528V1.488ZM143.664 18V19H144.457L144.638 18.2279L143.664 18ZM138.811 17.7922L136.675 7.73622L134.718 8.15177L136.854 18.2078L138.811 17.7922ZM135.696 6.944H135.6V8.944H135.696V6.944ZM134.622 7.73622L132.486 17.7922L134.443 18.2078L136.579 8.15177L134.622 7.73622ZM133.464 17H127.632V19H133.464V17ZM128.606 17.7721L124.742 1.26014L122.795 1.71586L126.659 18.2279L128.606 17.7721ZM123.768 2.488H129.288V0.487999H123.768V2.488ZM128.308 1.68653L130.204 11.0465L132.165 10.6495L130.269 1.28947L128.308 1.68653ZM131.184 11.848H131.28V9.848H131.184V11.848ZM132.261 11.0441L134.133 1.68412L132.172 1.29188L130.3 10.6519L132.261 11.0441ZM133.152 2.488H138.384V0.487999H133.152V2.488ZM137.406 1.69616L139.398 11.0562L141.355 10.6398L139.363 1.27984L137.406 1.69616ZM140.376 11.848H140.472V9.848H140.376V11.848ZM141.455 11.0344L143.231 1.67442L141.266 1.30158L139.49 10.6616L141.455 11.0344ZM142.248 2.488H147.528V0.487999H142.248V2.488ZM146.555 1.26014L142.691 17.7721L144.638 18.2279L148.502 1.71586L146.555 1.26014ZM143.664 17H137.832V19H143.664V17ZM161.568 2.496L161.032 3.3401L161.039 3.34456L161.568 2.496ZM163.656 6.288H164.656V6.27848L164.656 6.26895L163.656 6.288ZM163.656 6.576V7.576H164.656V6.576H163.656ZM158.688 6.576H157.688V7.576H158.688V6.576ZM158.16 5.28L158.833 4.54006V4.54006L158.16 5.28ZM154.92 5.112L154.444 4.23271L154.436 4.237L154.428 4.24144L154.92 5.112ZM155.136 6.84L155.513 5.91353V5.91353L155.136 6.84ZM157.608 7.488L157.809 6.50831L157.802 6.50689L157.608 7.488ZM160.872 8.352L160.535 9.29334L160.546 9.29713L160.556 9.30068L160.872 8.352ZM164.112 12.528H165.113L165.112 12.5141L164.112 12.528ZM162.12 16.872L161.541 16.0569L161.536 16.0603L162.12 16.872ZM150.816 16.992L150.298 17.847L150.302 17.8495L150.816 16.992ZM148.68 12.408V11.408H147.68V12.408H148.68ZM153.696 12.408H154.696V11.408H153.696V12.408ZM154.344 14.088L153.79 14.92L153.801 14.9273L153.812 14.9342L154.344 14.088ZM158.016 14.28L157.71 13.3279L157.7 13.3313L158.016 14.28ZM157.944 12.504L157.547 13.4216L157.565 13.4294L157.583 13.4366L157.944 12.504ZM155.568 11.856L155.359 12.8339L155.37 12.836L155.568 11.856ZM152.232 10.968L151.891 11.9078L151.898 11.9106L151.906 11.9132L152.232 10.968ZM149.928 9.408L149.189 10.0815L149.928 9.408ZM151.032 2.496L151.553 3.35001L151.555 3.34832L151.032 2.496ZM156.36 2.2C158.34 2.2 159.875 2.60506 161.032 3.34007L162.105 1.65193C160.542 0.658942 158.604 0.199999 156.36 0.199999V2.2ZM161.039 3.34456C162.096 4.00334 162.631 4.94571 162.657 6.30704L164.656 6.26895C164.618 4.27029 163.761 2.68466 162.098 1.64744L161.039 3.34456ZM162.656 6.288V6.576H164.656V6.288H162.656ZM163.656 5.576H158.688V7.576H163.656V5.576ZM159.688 6.576V6.48H157.688V6.576H159.688ZM159.688 6.48C159.688 5.72115 159.396 5.05152 158.833 4.54006L157.488 6.01994C157.629 6.14848 157.688 6.27884 157.688 6.48H159.688ZM158.833 4.54006C158.222 3.98473 157.397 3.8 156.552 3.8V5.8C157.148 5.8 157.395 5.93527 157.488 6.01994L158.833 4.54006ZM156.552 3.8C155.773 3.8 155.038 3.9112 154.444 4.23271L155.397 5.99129C155.571 5.8968 155.924 5.8 156.552 5.8V3.8ZM154.428 4.24144C153.884 4.54889 153.368 5.08093 153.368 5.88H155.368C155.368 5.90667 155.364 5.93925 155.353 5.97315C155.342 6.0067 155.328 6.0305 155.318 6.04364C155.31 6.05584 155.308 6.05458 155.322 6.04249C155.337 6.03017 155.365 6.0093 155.412 5.98256L154.428 4.24144ZM153.368 5.88C153.368 6.30983 153.502 6.72131 153.78 7.0687C154.045 7.40074 154.399 7.61965 154.76 7.76647L155.513 5.91353C155.362 5.85234 155.332 5.80726 155.341 5.8193C155.347 5.82684 155.357 5.84161 155.363 5.86074C155.369 5.87921 155.368 5.88797 155.368 5.88H153.368ZM154.76 7.76647C155.366 8.01254 156.269 8.24311 157.415 8.46911L157.802 6.50689C156.676 6.28489 155.931 6.08346 155.513 5.91353L154.76 7.76647ZM157.408 8.46766C158.71 8.73438 159.748 9.01116 160.535 9.29334L161.21 7.41066C160.301 7.08484 159.163 6.78561 157.809 6.50834L157.408 8.46766ZM160.556 9.30068C161.262 9.53597 161.875 9.92571 162.404 10.4817L163.853 9.10234C163.102 8.31429 162.211 7.74403 161.189 7.40332L160.556 9.30068ZM162.404 10.4817C162.831 10.9298 163.099 11.5782 163.113 12.5419L165.112 12.5141C165.094 11.1738 164.706 9.99821 163.853 9.10234L162.404 10.4817ZM163.112 12.528C163.112 14.2291 162.551 15.3391 161.541 16.0569L162.7 17.6871C164.346 16.5169 165.112 14.7309 165.112 12.528H163.112ZM161.536 16.0603C160.447 16.8443 158.914 17.288 156.84 17.288V19.288C159.183 19.288 161.17 18.7877 162.704 17.6837L161.536 16.0603ZM156.84 17.288C154.357 17.288 152.554 16.8681 151.331 16.1345L150.302 17.8495C151.959 18.8439 154.172 19.288 156.84 19.288V17.288ZM151.335 16.1371C150.303 15.511 149.68 14.3757 149.68 12.408H147.68C147.68 14.8243 148.482 16.745 150.298 17.8469L151.335 16.1371ZM148.68 13.408H153.696V11.408H148.68V13.408ZM152.696 12.408C152.696 13.367 152.943 14.3553 153.79 14.92L154.899 13.2559C154.882 13.2447 154.696 13.113 154.696 12.408H152.696ZM153.812 14.9342C154.485 15.3583 155.388 15.496 156.36 15.496V13.496C155.508 13.496 155.068 13.3617 154.877 13.2418L153.812 14.9342ZM156.36 15.496C157.094 15.496 157.763 15.4187 158.333 15.2287L157.7 13.3313C157.406 13.4293 156.971 13.496 156.36 13.496V15.496ZM158.322 15.232C158.69 15.114 159.052 14.9045 159.318 14.5534C159.587 14.1981 159.688 13.7875 159.688 13.392H157.688C157.688 13.421 157.685 13.4248 157.689 13.4112C157.694 13.3958 157.704 13.3716 157.723 13.3466C157.742 13.3219 157.759 13.3096 157.763 13.3069C157.765 13.3052 157.751 13.3148 157.71 13.328L158.322 15.232ZM159.688 13.392C159.688 12.9663 159.55 12.5627 159.269 12.2278C159.003 11.9106 158.654 11.7065 158.305 11.5714L157.583 13.4366C157.654 13.4639 157.698 13.488 157.721 13.5037C157.745 13.519 157.745 13.5236 157.736 13.5122C157.725 13.4994 157.711 13.477 157.7 13.4472C157.689 13.4178 157.688 13.3969 157.688 13.392H159.688ZM158.342 11.5864C157.76 11.3341 156.88 11.1017 155.767 10.876L155.37 12.836C156.465 13.0583 157.169 13.2579 157.547 13.4216L158.342 11.5864ZM155.778 10.8782C154.457 10.5951 153.387 10.309 152.559 10.0228L151.906 11.9132C152.838 12.235 153.992 12.5409 155.359 12.8338L155.778 10.8782ZM152.574 10.0282C151.852 9.76576 151.219 9.33987 150.668 8.73451L149.189 10.0815C149.95 10.9161 150.852 11.5302 151.891 11.9078L152.574 10.0282ZM150.668 8.73451C150.22 8.2437 149.944 7.53131 149.944 6.48H147.944C147.944 7.89269 148.324 9.1323 149.189 10.0815L150.668 8.73451ZM149.944 6.48C149.944 4.97524 150.496 3.99397 151.553 3.35001L150.512 1.64199C148.785 2.69403 147.944 4.36876 147.944 6.48H149.944ZM151.555 3.34832C152.766 2.60567 154.347 2.2 156.36 2.2V0.199999C154.086 0.199999 152.115 0.658326 150.509 1.64368L151.555 3.34832Z" fill="black" mask="url(#path-1-outside-1_4109_367)"/>
</g>
<defs>
<filter id="filter0_d_4109_367" x="0.583252" y="0.200012" width="168.529" height="27.088" filterUnits="userSpaceOnUse" color-interpolation-filters="sRGB">
<feFlood flood-opacity="0" result="BackgroundImageFix"/>
<feColorMatrix in="SourceAlpha" type="matrix" values="0 0 0 0 0 0 0 0 0 0 0 0 0 0 0 0 0 0 127 0" result="hardAlpha"/>
<feOffset dy="4"/>
<feGaussianBlur stdDeviation="2"/>
<feComposite in2="hardAlpha" operator="out"/>
<feColorMatrix type="matrix" values="0 0 0 0 0 0 0 0 0 0 0 0 0 0 0 0 0 0 0.25 0"/>
<feBlend mode="normal" in2="BackgroundImageFix" result="effect1_dropShadow_4109_367"/>
<feBlend mode="normal" in="SourceGraphic" in2="effect1_dropShadow_4109_367" result="shape"/>
</filter>
</defs>
</svg>
